<svg xmlns="http://www.w3.org/2000/svg" viewBox="-67 122 1134 756">
  <path fill="rgb(250,250,250)" d="m839.92 149.66-6.94 28.54-28.74 7.14-28.74 6.94 28.54 6.94 28.74 6.74 7.14 28.74 7.33 28.74 6.74-28.74 6.74-28.54 28.74-6.94 28.74-6.94-28.74-6.94-28.74-7.14-6.14-25.77c-3.37-14.27-6.54-26.96-6.94-28.54-.59-1.39-3.96 10.31-7.73 25.77zm-168.29 23.39-2.38 13.48L653 189.5l-16.25 2.78 15.66 2.77c17.24 3.17 17.84 3.77 20.22 21.8.79 5.35 1.98 9.91 2.78 9.91s1.98-4.56 2.78-9.91c2.38-18.04 2.97-18.63 20.22-21.8l15.66-2.77-16.27-2.78-16.25-2.97-2.38-13.48c-1.39-7.53-2.97-13.68-3.77-13.68s-2.38 6.15-3.77 13.68zm280.48 83.05-3.57 13.68-14.07 3.57-13.88 3.57 13.68 3.77c7.33 2.18 14.27 4.76 14.87 5.95.79 1.19 2.58 7.53 3.77 13.88 2.78 13.08 4.16 12.29 7.93-3.96 2.58-11.5 3.96-12.69 19.42-16.25 5.75-1.39 10.11-2.77 9.71-3.37-.59-.4-6.54-2.38-13.48-4.16l-12.69-3.37-3.37-12.69c-1.78-6.94-3.76-12.88-4.16-13.28-.39-.42-2.17 5.33-4.16 12.66zm-526.47 24.38c-106.64 11.3-214.48 41.23-268.99 74.53l-6.54 3.96 85.43 113.78c46.79 62.65 86.03 114.58 86.83 115.37.99.99 5.15 0 9.32-2.18 19.23-9.71 70.37-22.6 111.8-28.34 29.73-4.16 89.4-3.17 117.35 1.78 23.39 4.36 57.68 14.67 75.92 23l9.91 4.56 11.5-17.05 11.3-17.05-15.28-7.34c-75.52-35.67-197.03-40.83-292.97-12.28-9.71 2.97-19.62 5.75-22 6.14-3.37.79-14.07-12.49-65.41-81.07-33.9-44.99-62.04-82.86-62.84-84.24-1.78-2.97 4.96-6.14 37.27-16.85 89-29.53 202.38-45.39 282.46-39.44 86.82 6.54 192.47 30.13 249.56 55.9 7.13 3.17 13.48 5.15 14.07 4.36 4.56-5.35 19.82-28.15 19.82-29.73 0-3.17-25.77-14.07-60.46-25.37-51.54-17.05-112.99-31.12-174.43-39.84-27.55-3.79-126.27-5.57-153.62-2.6zm318.94 208.33c-81.27 104.47-140.34 182.17-141.93 186.53-6.34 18.44 11.3 31.92 28.15 21.41 3.77-2.38 25.57-32.11 58.47-80.08 28.94-42.02 53.12-75.92 53.72-75.52.79.39 1.78 3.17 2.38 6.14.79 4.56-14.07 27.95-97.92 153.42-69.38 103.87-98.91 149.66-98.91 153.42 0 18.43 25.17 29.54 37.07 16.25 2.18-2.38 27.75-44.01 57.09-92.57 29.34-48.56 70.96-117.54 92.57-153.22 39.05-64.42 41.82-70.57 34.29-73.54-2.58-.99-10.9-24.98-10.9-31.72 0-1.98 30.13-46.78 66.8-99.9 68.98-99.71 73.54-107.44 62.84-109.02-3.58-.59-28.76 30.93-143.72 178.4zM76.37 390.3c-.59 2.18-3.57 14.27-6.54 26.76-2.97 12.49-6.54 23.79-7.73 24.98-1.19 1.19-12.49 4.76-24.98 7.73-12.49 2.97-24.58 5.95-26.76 6.54-2.38.6 6.94 3.77 24.58 8.13l28.74 7.14 6.74 28.74 6.94 28.74 6.94-28.95 6.94-28.94 28.94-6.94 28.94-6.94-28.74-6.74-28.74-6.94-7.14-28.53c-4.36-17.84-7.53-27.16-8.13-24.78zm122.31 170.07c-3.37 18.24-4.36 21.41-7.93 22.2-2.18.4-9.32 1.79-15.86 2.97-22.99 4.16-22.99 4.36-.99 8.72l20.81 4.16 3.77 20.81c1.98 11.5 4.16 19.82 4.56 18.63.4-1.19 2.38-10.7 4.16-20.81l3.37-18.63 20.81-4.16c22-4.36 22-4.56-.99-8.72-6.54-1.19-13.68-2.58-16.06-2.97-3.37-.79-4.36-3.37-6.74-17.25-4.55-27.94-4.75-28.34-8.91-4.95z"/>
</svg>
