<svg xmlns="http://www.w3.org/2000/svg" xml:space="preserve" viewBox="0 1430 7500 2130">
	<path fill="#fff" d="M3486.388 1448.403c-7.498 0-17.5 0-31.25 1.251-186.27 8.75-500.041 166.267-650.054 328.779-83.759 91.257-126.262 178.766-131.262 272.521-2.498 50.001-2.498 52.504 12.504 83.754 26.249 56.258 85.005 102.51 141.258 111.265 35.004 6.247 23.752-13.756-12.499-20.008-26.255-4.995-52.504-18.745-72.507-38.748-68.757-70.009-40.005-211.273 72.507-345.027 113.757-136.263 353.777-280.024 557.545-333.78 70.003-18.751 106.26-22.5 142.51-18.751 32.501 5.001 41.257 11.247 46.257 37.502 12.499 66.254-73.758 263.771-268.777 618.799-50 90.011-98.755 180.017-108.757 198.768-18.751 32.501-18.751 32.501-35.004 30.003-18.751-3.749-21.248 3.749-6.246 17.5 8.75 8.75 6.246 12.504-121.261 236.27-71.255 125.01-136.263 236.27-143.761 248.769-17.5 25.003-17.5 26.255-5 38.753 11.253 8.75 11.253 8.75 25.003-6.252 11.247-12.499 78.753-120.01 248.769-398.782 22.5-36.25 42.502-65.003 45.006-65.003 2.497 0 24.997 23.751 48.749 55.007 137.515 172.513 212.518 212.513 380.031 205.015 102.51-3.749 211.267-27.501 287.528-61.254 32.501-13.756 34.999-13.756 34.999 0 0 12.499 16.254 31.25 32.507 34.999 13.75 5 41.251-15.002 105.008-76.256 27.501-26.249 47.503-43.754 46.252-37.502-2.498 5.001-6.252 23.752-10.001 42.503-6.252 37.502-1.251 53.755 22.5 71.255 22.506 17.499 35.005 8.75 102.51-60.002l62.505-63.757-13.75 30.004c-25.003 55.001-75.004 173.759-97.51 228.766-11.247 30.004-23.751 57.504-27.5 61.259-3.749 6.247-32.501 8.744-177.514 14.996-441.285 18.751-856.321 43.754-1172.595 72.506-418.785 37.502-1087.59 122.513-1433.869 180.017-33.753 6.252-61.254 8.75-62.505 8.75-1.252-1.251 12.499-25.003 30.004-52.504 67.506-103.756 132.508-221.268 313.777-568.798l31.25-60.002 67.506-45.006c203.769-135.011 416.282-315.023 530.045-450.04 126.262-150.008 206.266-316.275 200.014-413.779-6.252-86.262-61.253-125.01-131.262-92.509-101.253 47.503-283.773 241.271-428.781 453.789-77.507 113.757-142.515 227.515-267.526 462.533l-33.753 65.008-55.001 31.25c-73.758 43.754-187.515 100.013-255.021 127.513-390.033 158.763-733.813 137.509-877.575-56.253-23.752-31.255-37.502-43.76-43.754-37.508-1.246 1.252 6.252 15.002 17.505 31.255 66.254 98.756 182.515 166.261 336.277 193.768 61.254 11.247 191.264 10.001 273.772-2.503 163.764-23.751 318.778-76.255 485.039-162.512 40.005-21.254 72.506-37.508 75.004-37.508 3.755 0-182.515 358.783-237.516 457.544-27.501 48.749-87.508 146.259-100.007 161.261-7.504 8.75-23.752 13.75-93.76 28.752-202.517 41.251-348.776 85.005-456.287 137.509-107.511 52.504-136.263 96.258-91.257 136.263 22.5 20.002 61.254 36.256 115.009 46.252v-1.252c95.006 17.505 175.017 3.755 272.52-46.251 82.508-42.503 172.519-117.507 246.271-207.512l36.256-46.257 113.757-18.751c318.778-52.504 865.07-121.261 1296.354-165.015 406.286-41.251 752.564-66.254 1230.1-90.006 191.27-10.001 232.521-10.001 228.772-1.252-7.504 17.5-97.51 252.524-101.259 262.519-3.749 13.756 8.75 31.255 23.751 31.255 12.499 0 28.752-36.25 91.258-192.516 25.003-61.254 45.005-111.26 45.005-111.26 1.246-2.497 275.024-12.499 276.27-10.001 1.251 1.251-11.247 28.758-26.249 61.259-36.256 76.255-112.511 258.77-112.511 268.771 0 8.75 23.751 28.752 33.753 28.752 3.749 0 12.499-10.001 18.751-22.5 12.504-21.254 95.006-203.769 130.011-291.277l18.751-45.006 56.258-3.749c29.999-1.246 151.259-2.497 267.52-2.497 378.78 0 573.799 16.248 580.045 47.503 1.252 5 3.75 12.499 6.252 16.253 13.75 14.996 22.5-2.503 12.499-26.255-10.002-21.254-37.502-35.004-96.258-45.006-92.503-16.254-175.011-19.997-490.04-22.5l-321.275-2.497 28.752-70.009c31.255-77.507 71.254-143.761 132.514-217.519 41.251-48.755 75.004-81.256 100.007-92.503 26.249-12.505 32.501-11.253 32.501 8.75 0 36.25-10.001 47.503-77.507 85.005-113.758 63.757-147.511 107.505-101.259 131.262 13.75 6.247 18.751 7.498 36.256 2.498 46.252-13.75 120.01-78.753 150.014-130.011 13.75-21.254 19.997-27.501 47.503-40 18.75-7.504 33.752-13.756 33.752-13.756 1.246 0-7.503 21.254-16.253 45.006-23.751 58.756-27.5 101.259-12.499 122.513 13.75 19.997 33.753 26.249 57.505 18.751 37.502-13.75 82.502-56.259 200.014-190.019 32.501-36.25 35.004-38.753 40.005-28.752 3.749 8.75 0 21.254-17.505 58.756-26.25 62.505-45 115.009-45 133.76 0 8.75 6.247 18.751 16.248 28.752 12.505 13.75 17.505 15.002 36.256 13.75 53.756-6.247 142.51-95.006 291.272-292.523 7.503-10.001 2.503 8.75-16.249 55.007-36.255 90.006-43.754 121.261-41.256 166.261 1.252 31.25 3.749 38.754 16.254 55.007 36.25 43.754 98.755 63.751 195.013 63.751 85.005 0 151.266-12.499 353.783-62.505 346.278-85.005 592.544-136.257 816.316-167.513 63.756-8.75 215.015-12.499 240.019-5.001 7.498 2.503 20.002 11.253 28.752 20.003 16.253 17.505 22.5 15.002 12.499-6.247-22.5-42.508-60.002-52.51-176.262-48.755-126.262 3.749-317.526 32.501-602.551 88.754-163.764 32.501-248.769 52.504-383.78 88.754-187.515 52.51-240.019 61.259-326.276 61.259-73.758 0-122.513-13.75-133.76-38.753-20.003-42.502 7.498-121.261 127.507-362.532l66.254-132.508 83.76-3.749c246.271-10.001 325.024-12.504 388.781-12.504 68.757 0 68.757 0 67.506-11.253-2.498-11.247-3.75-11.247-85.005-13.745-45.006-1.251-160.015 1.246-256.273 5.001-96.258 2.498-175.011 3.749-177.514 2.498-3.749-3.749 66.254-135.011 106.259-198.768 3.75-7.498 2.498-11.253-6.252-19.997-10-11.253-10-11.253-21.248-1.251-16.253 13.75-73.758 102.505-110.008 167.513-17.505 29.998-33.752 56.253-36.256 57.504-3.749 0-63.756 3.749-136.263 6.247-71.255 3.755-253.77 11.253-405.029 18.756-488.794 21.249-620.05 25.004-727.562 17.5-52.503-3.749-97.509-5-98.755-3.749-5 6.252 12.499 35.004 26.249 42.503 23.752 12.499 212.519 10.001 547.544-8.75 471.288-26.255 771.315-41.257 773.813-38.754 2.503 2.498-65.003 103.756-117.506 173.765-120.01 161.261-216.268 263.771-280.024 296.272l-16.253 8.75 11.252-26.249c5.001-15.002 18.751-47.509 30.004-72.506 21.249-52.504 23.752-72.507 8.75-96.258-11.253-18.751-12.499-37.502-2.503-55.007 10.001-17.499 10.001-23.751-1.246-29.998-8.75-5-12.504-1.252-28.752 21.248-28.752 40.005-135.012 155.014-176.268 190.013-18.751 17.505-47.503 37.508-61.253 45.006l-26.25 15.002 2.498-20.003c1.251-11.253 10.001-36.25 18.751-56.253l15.002-37.502 23.752-1.251c32.501-1.252 60.007-21.249 80.004-61.254 21.254-40.005 21.254-57.504 0-78.759-28.752-30.004-60.002-20.003-100.007 31.255-22.5 30.004-23.751 30.004-90.005 55.001-6.252 2.503-8.75 0-8.75-10.001 0-28.752-28.752-57.504-56.253-57.504-23.757 0-82.508 47.503-132.514 108.757-10.001 11.253-18.751 20.008-20.002 18.757-1.246-1.251 10.001-30.004 22.506-63.757 31.25-78.759 33.753-86.257 23.751-96.258-11.253-11.253-17.505-10.001-55.007 11.253-113.758 63.757-117.507 65.003-117.507 55.001 0-13.75-27.506-42.502-45.005-46.252-7.504-2.503-21.254 0-32.501 3.749-22.506 10.001-76.261 61.253-100.013 96.258-11.247 15.002-19.997 26.249-21.249 25.003-1.251-1.251 7.498-21.254 18.751-46.252 37.502-78.759 38.753-88.76 15.002-101.259-7.504-5-16.253 3.749-61.253 58.75-67.506 82.508-158.763 176.268-170.016 176.268-8.75 0-8.75-3.749-6.252-21.254 2.503-12.499 10.001-43.754 18.75-71.255l13.75-50.006-13.75-12.499c-8.75-7.498-17.499-18.751-21.248-25.003-8.75-16.248-35.004-30.004-55.007-30.004-35.004 0-81.256 40.005-122.507 107.511-12.504 21.254-21.254 27.501-62.505 48.755-81.256 40.005-193.767 63.757-312.525 63.757-36.256 0-80.01-2.503-97.51-6.252-46.251-7.498-96.258-32.507-137.509-70.003-42.508-38.753-153.762-168.764-151.265-176.268 1.251-3.749 23.752-6.252 56.253-8.75 121.261-6.252 280.025-63.757 457.539-166.261 166.267-96.258 292.523-195.019 440.039-346.279 111.254-112.511 220.017-250.02 262.519-328.779 12.499-23.752 13.75-28.752 8.75-40.005-3.75-7.498-8.75-11.247-12.499-10.001-3.749 1.251-22.505 23.752-41.257 48.755-102.504 135.011-292.523 335.031-417.533 438.787-213.764 178.766-443.782 313.771-620.051 362.532-42.502 12.499-110.008 21.249-110.008 14.997 0-1.251 23.751-41.251 51.252-86.257 181.268-293.769 311.28-567.547 326.276-690.054 7.504-60.008-19.997-117.512-67.5-143.761-20.008-9.995-26.261-12.499-51.264-12.499m-1048.836 60.008c17.505 0 21.254 16.254 18.751 51.252-5.001 65.008-45 162.512-105.008 253.77-90.006 141.263-258.77 307.53-461.287 460.041-36.25 26.249-83.754 61.253-106.259 77.501l-42.503 28.752 21.254-38.748c46.252-85.01 135.012-237.521 173.765-298.775 153.762-241.271 348.776-463.79 453.784-516.295 21.253-11.246 37.502-17.498 47.503-17.498M5065.27 2452.24c1.252 0 2.498 1.246 2.498 2.498 0 11.253-17.499 46.257-34.999 68.757-7.504 9.996-21.254 21.249-30.004 26.249l-16.253 10.001 16.253-29.998c16.247-31.255 53.755-76.261 62.505-77.507m-2632.719 13.75c-1.246 1.251-2.497 1.251-5 2.497-11.247 6.252-34.999 40.005-43.749 63.757-11.253 25.003-246.271 245.02-246.271 228.767 0-2.498 7.498-23.752 15.002-48.749 16.248-47.509 18.751-73.758 10.001-105.013-6.252-16.248-5.001-21.249 5.001-38.754 4.995-9.996 8.75-22.5 7.498-26.249-3.749-8.755-22.5-18.751-31.256-15.002-7.498 2.503-21.248 27.501-21.248 38.753 0 15.002-171.267 207.518-185.018 207.518-7.498 0-5.001-26.255 3.755-67.506 8.75-40.005 7.498-51.252-8.755-56.253-7.498-2.503-13.75-13.756-18.751-28.752-10.001-28.752-32.501-47.509-57.505-47.509-52.504 0-128.759 78.759-178.766 186.264-27.501 58.756-33.753 85.011-22.5 101.264 5.001 7.498 16.253 16.248 26.255 19.997 15.002 7.504 18.751 6.252 34.999-2.497 25.003-12.499 73.758-55.007 135.011-118.764l51.258-53.75v33.753c0 38.753 7.498 53.755 29.998 63.757 27.506 11.247 56.259-13.756 151.265-126.262 26.249-32.501 48.755-57.505 48.755-56.253 0 1.246-10.001 33.753-22.506 72.501-26.249 81.262-27.501 93.76-9.996 110.014 27.501 26.249 52.504 10.001 183.761-118.764l87.508-86.257 11.253 47.503c6.247 26.255 10.001 48.755 8.75 50.006 0 0-18.751 11.253-41.251 25.003-87.508 52.504-131.262 92.509-152.517 138.76-13.75 30.004-12.499 42.503 7.504 61.254 25.003 25.003 48.755 23.751 102.504-3.749 50.006-23.752 88.76-61.254 108.762-102.51 11.247-23.751 15.002-34.999 15.002-66.254v-37.502l113.758-57.505c166.261-83.759 282.522-120.015 315.029-98.761 6.247 5.001 14.996 8.755 18.751 8.755 8.75 0-11.253-20.003-28.752-28.758-43.754-22.5-176.268 17.505-361.281 111.26-51.258 25.003-68.757 31.255-71.255 26.255-7.504-11.253-16.253-73.758-12.504-93.761 2.503-12.499 12.504-29.998 28.752-50 12.505-17.505 23.752-33.753 23.752-37.502 0-5.001-3.749-12.505-10.001-17.505-6.247-6.245-10.001-8.748-15.002-7.497m2238.937 5.001c1.251 0-6.252 20.003-15.002 43.754-10.001 22.5-45.006 107.505-78.759 188.761-33.752 81.256-65.002 152.516-68.751 158.763-6.252 8.755-12.505 10.001-57.511 12.504-101.252 6.247-228.766 7.498-228.766 3.749 0-8.75 18.751-53.756 50.006-116.261l29.998-63.757 23.752 12.505c43.754 23.751 86.262 8.75 143.767-50.006 27.5-26.255 41.251-46.252 57.504-80.005l22.5-43.754 60.002-35.005c32.507-18.749 60.008-32.5 61.26-31.248m-166.267 0c11.252-1.252 13.75 7.498 10.001 28.752-3.749 22.5-5 23.752-48.755 52.504-24.998 14.996-62.505 40.005-83.753 55.001l-37.502 27.5 19.997-27.5c58.756-80.005 91.257-115.009 126.262-131.263 5-2.496 10.001-4.994 13.75-4.994m-393.782 13.75c2.503 0 5 1.252 6.252 3.749 11.253 16.248 3.749 27.5-46.251 73.758-28.758 25.003-58.756 51.252-68.757 60.002l-17.505 13.75 20.003-37.502c33.752-61.253 85.01-115.008 106.258-113.757m366.282 100.008c1.251-1.252 2.503-1.252 2.503 0 2.497 2.503-22.506 40.005-41.257 60.007-7.498 8.75-27.5 23.752-43.754 33.753-31.25 21.249-56.253 26.249-47.503 11.247 10-18.751 112.511-101.258 130.011-105.007m-2592.714 25.003c1.252 0 3.749 12.499 6.252 27.5l5.001 26.249-72.506 68.757c-76.255 71.26-116.26 105.013-116.26 97.51 0-2.498 8.75-21.249 20.003-42.503 41.251-82.508 98.755-152.517 137.509-171.262 10-5 18.755-7.503 20.001-6.251m2888.986 12.498c1.251 0-3.75 5-17.5 17.505-12.499 12.499-31.25 27.5-42.502 32.501-17.5 11.253-17.5 10.001 7.498-12.505 13.75-13.75 32.507-27.5 42.503-32.501 5-3.748 8.755-5 10.001-5m-2383.945 116.261c6.252 0 1.252 15.002-12.499 43.754-18.751 38.753-65.008 82.508-113.763 107.511-18.751 10.001-36.25 18.745-37.502 18.745-3.749 0 3.755-24.998 12.505-43.749 13.75-25.003 53.755-62.505 102.504-95.006 25.004-17.505 47.504-31.255 48.755-31.255m-1191.346 481.29c13.75 1.252-110.008 128.76-166.261 171.262-53.755 40.005-121.261 73.758-172.519 87.508-71.255 17.505-183.761 10.001-223.766-16.248-16.253-11.253-17.499-31.256-5.001-47.509 48.755-58.75 256.273-133.76 503.79-181.263 30.004-6.252 57.505-11.253 61.259-12.499 1.247-1.251 1.247-1.251 2.498-1.251"/>
</svg>
