<svg xmlns="http://www.w3.org/2000/svg" xml:space="preserve" viewBox="-200 0 841.5 441.5">
	<g fill="rgb(250,250,250)">
		<path d="M102.396 261.332c-1.562-1.564-4.094-1.566-5.657-.004-1.563 1.561-1.565 4.093-.004 5.656 3.133 3.138 4.859 7.309 4.859 11.743 0 2.209 1.791 4 4 4s4-1.791 4-4c-.001-6.569-2.557-12.747-7.198-17.395z"/>
		<path d="m429.477 436-50.285-124.339c10.461-7.223 17.333-19.288 17.333-32.934 0-20.556-15.588-37.533-35.563-39.748l6.634-60.254c22.024-.038 39.93-17.966 39.93-39.998 0-22.056-17.944-40-40-40-11.361 0-21.623 4.77-28.912 12.401L257.26 56.266c2.223-4.974 3.47-10.476 3.47-16.266 0-22.056-17.944-40-40-40s-40 17.944-40 40c0 5.798 1.25 11.307 3.479 16.285l-81.324 54.844c-7.289-7.632-17.55-12.401-28.912-12.401-22.056 0-40 17.944-40 40 0 22.032 17.906 39.96 39.93 39.998l6.634 60.254c-19.975 2.215-35.563 19.192-35.563 39.748 0 13.645 6.873 25.711 17.333 32.934L12.023 436c-.499 1.233-.352 2.634.392 3.736.743 1.103 1.986 1.764 3.316 1.764h44c1.844 0 3.449-1.26 3.886-3.052L93.042 317.91c8.931-1.837 16.779-6.664 22.463-13.38l72.23 56.169c-4.483 6.548-7.004 14.395-7.004 22.601 0 10.048 3.672 19.497 10.379 26.873l-3.666 26.785c-.157 1.145.189 2.301.949 3.172.76.87 1.859 1.37 3.014 1.37h58.648c1.155 0 2.254-.5 3.014-1.37.76-.871 1.105-2.027.949-3.172l-3.666-26.785c6.707-7.377 10.379-16.826 10.379-26.873 0-8.197-2.516-16.037-6.99-22.581l72.255-56.188c5.684 6.716 13.532 11.543 22.463 13.38l29.425 120.538c.437 1.792 2.042 3.052 3.886 3.052h44c1.33 0 2.573-.661 3.316-1.764.743-1.103.89-2.504.391-3.737zM322.151 258.304l-64.316-31.386c1.128-2.815 1.931-5.757 2.399-8.757l.96-.685 61.536 39.895c-.196.309-.391.618-.579.933zm-101.42 19.343c-17.645 0-32-14.356-32-32 0-17.645 14.355-32 32-32s32 14.355 32 32c0 17.644-14.355 32-32 32zm-132.154-38.75-6.711-60.955c9.307-1.871 17.452-6.982 23.212-14.103l68.224 48.643-59.49 38.568c-6.502-6.772-15.354-11.266-25.235-12.153zm92.347-30.805-71.459-50.949c.41-.788.797-1.59 1.155-2.407l75.583 37.105c-2.848 4.861-4.706 10.369-5.279 16.251zm-62.154 49.279 61.536-39.895.905.646c.468 3.02 1.272 5.984 2.409 8.818l-64.271 31.363c-.188-.314-.383-.623-.579-.932zM188.731 212c0-17.645 14.355-32 32-32s32 14.355 32 32c0 2.842-.373 5.609-1.09 8.288-1.779-2.165-3.786-4.134-5.975-5.885.237-.511.379-1.075.379-1.676 0-6.569-2.556-12.747-7.198-17.395-1.561-1.563-4.093-1.565-5.657-.005-1.563 1.562-1.565 4.094-.004 5.657 2.346 2.35 3.901 5.277 4.536 8.461-5.161-2.432-10.918-3.799-16.991-3.799-12.438 0-23.568 5.708-30.91 14.642-.717-2.679-1.09-5.447-1.09-8.288zm143.304-54.857-71.495 50.976c-.581-6-2.494-11.613-5.437-16.547l75.77-36.851c.36.822.749 1.629 1.162 2.422zm-4.348 93.909-59.49-38.569 68.224-48.643c5.76 7.12 13.905 12.232 23.212 14.103l-6.711 60.955c-9.88.886-18.732 5.38-25.235 12.154zm39.839-144.324c17.645 0 32 14.355 32 32s-14.355 32-32 32-32-14.355-32-32 14.355-32 32-32zm-33.847 10.722c-3.891 6.168-6.153 13.461-6.153 21.277 0 2.847.304 5.622.872 8.302l-78.149 38.008c-6.473-7.08-15.451-11.832-25.518-12.837V79.8c11.748-1.172 22.007-7.453 28.538-16.577l80.41 54.227zM220.731 8c17.645 0 32 14.355 32 32s-14.355 32-32 32-32-14.355-32-32 14.355-32 32-32zm-32.525 55.24c6.531 9.114 16.785 15.388 28.525 16.56v92.4c-10.181 1.016-19.247 5.866-25.736 13.08L113.1 147.04c.569-2.683.875-5.462.875-8.313 0-7.816-2.262-15.11-6.153-21.277l80.384-54.21zM41.974 138.727c0-17.644 14.355-32 32-32s32 14.355 32 32-14.355 32-32 32-32-14.355-32-32zM56.59 433.5H21.663l47.699-117.946c4.693 1.997 9.844 3.116 15.247 3.164L56.59 433.5zm28.384-122.772c-17.645 0-32-14.355-32-32s14.355-32 32-32 32 14.356 32 32-14.355 32-32 32zm37.761-45.175 59.003-28.792c-.652 2.86-1.007 5.831-1.007 8.886 0 17.762 11.641 32.849 27.691 38.054l-9.001 65.76c-2.368 1.492-4.552 3.208-6.523 5.12l-72.846-56.648c3.136-5.704 4.924-12.249 4.924-19.205-.002-4.616-.797-9.046-2.241-13.175zM188.731 383.3c0-6.397 1.923-12.517 5.34-17.674l2.835 2.205-4.228 30.89c-2.576-4.668-3.947-9.934-3.947-15.421zm7.26 50.2 20.273-148.109c1.467.164 2.956.256 4.466.256 1.511 0 3-.092 4.467-.256L245.47 433.5h-49.479zm56.74-50.2c0 5.488-1.371 10.753-3.947 15.421l-4.224-30.863 2.844-2.211c3.408 5.152 5.327 11.263 5.327 17.653zm-4.149-28.704c-1.975-1.919-4.166-3.639-6.541-5.136l-9.001-65.76c16.05-5.205 27.69-20.292 27.69-38.054 0-3.063-.357-6.04-1.012-8.907l59.047 28.814c-1.445 4.129-2.24 8.56-2.24 13.175 0 6.956 1.788 13.5 4.924 19.204l-72.867 56.664zm75.944-75.868c0-17.645 14.355-32 32-32s32 14.356 32 32c0 17.645-14.355 32-32 32s-32-14.356-32-32zM384.91 433.5l-28.02-114.782c5.402-.048 10.554-1.167 15.247-3.164l47.7 117.946H384.91z"/>
		<circle cx="84.731" cy="258.5" r="5.25"/>
		<path d="M90.944 140.227c0 2.209 1.791 4 4 4s4-1.791 4-4c0-6.569-2.556-12.747-7.198-17.395-1.562-1.564-4.094-1.566-5.657-.004-1.563 1.561-1.565 4.093-.004 5.656 3.133 3.138 4.859 7.309 4.859 11.743z"/>
		<circle cx="74.081" cy="120" r="5.25"/>
		<path d="M385.696 140.227c0 2.209 1.791 4 4 4s4-1.791 4-4c0-6.569-2.556-12.747-7.198-17.395-1.561-1.563-4.093-1.565-5.657-.005-1.564 1.562-1.565 4.094-.004 5.657 3.133 3.139 4.859 7.309 4.859 11.743z"/>
		<circle cx="368.833" cy="120" r="5.25"/>
		<path d="M374.603 278.818c0 2.209 1.791 4 4 4s4-1.791 4-4c0-6.569-2.556-12.747-7.198-17.396-1.562-1.563-4.094-1.566-5.657-.004-1.564 1.561-1.565 4.093-.004 5.656 3.133 3.139 4.859 7.31 4.859 11.744z"/>
		<circle cx="357.74" cy="258.59" r="5.25"/>
		<path d="M238.045 40.685c0 2.209 1.791 4 4 4s4-1.791 4-4c0-6.569-2.556-12.747-7.198-17.396-1.561-1.563-4.093-1.564-5.657-.005-1.563 1.561-1.565 4.094-.004 5.657 3.134 3.139 4.859 7.309 4.859 11.744z"/>
		<circle cx="221.182" cy="20.456" r="5.25"/>
		<path d="M246.045 246.208c0-6.569-2.556-12.747-7.198-17.395-1.561-1.564-4.093-1.564-5.657-.005-1.563 1.561-1.565 4.094-.004 5.657 3.133 3.139 4.859 7.309 4.859 11.743 0 2.209 1.791 4 4 4s4-1.791 4-4z"/>
		<circle cx="221.182" cy="225.98" r="5.25"/>
		<circle cx="221.182" cy="192.5" r="5.25"/>
	</g>
</svg>
