<svg xmlns="http://www.w3.org/2000/svg" viewBox="0 66 700 466" id="dotfiles" style="background: rgb(250, 250, 250)">
  <path stroke="rgb(24, 24, 24)" d="M0 299.5V599h700V0H0v299.5zm366-104c0 .2-18.1 30.7-40.1 67.7-22.1 37-51.4 86.2-65.2 109.3-13.7 23.1-25.7 42.8-26.5 43.8-1.4 1.5-3.1 1.7-13.1 1.5-7.6-.2-11.5-.7-11.4-1.4.1-.6 29.9-50.6 66.3-111.2L342.1 195h12c6.5 0 11.9.2 11.9.5zm263.6 4.7c-1.2 11.3-2.9 39.8-2.4 40.4.4.3 9-4.9 19.3-11.6 10.2-6.8 18.7-12.1 18.9-11.9.5.5 12.6 21 12.6 21.3 0 .1-9 4.6-20 10.1s-20 10.2-20 10.5c0 .3 8.8 4.8 19.5 10 10.8 5.1 19.8 9.6 20 10 .3.5-10.7 20.6-12 21.9-.3.2-8.8-5.2-19-11.9-10.2-6.8-18.8-12-19.2-11.6-.6.6 1.1 29.6 2.4 39.8l.6 4.8h-26.4l.6-6.3c1-11.4 2.6-39 2.3-39.3-.2-.1-8.6 5.3-18.7 12.1-10.1 6.9-18.8 12.2-19.2 11.9-1.1-.6-11.9-19.8-11.9-21 0-.5 9.2-5.3 20.3-10.7l20.2-9.9-20.2-9.8c-11.2-5.4-20.3-10.3-20.3-10.9 0-.8 10.1-19 11.7-21 .1-.2 8.8 5.3 19.3 12.2 10.4 7 19 12.1 19 11.5 0-.7-.7-11-1.4-22.8-.8-11.8-1.2-21.8-1-22.2.3-.5 6.2-.8 13.1-.8h12.5l-.6 5.2zM100.5 313.1c3.3 1 11.4 4.9 18 8.5 20.5 11.1 31.8 16.4 37.3 17.4 6.1 1.1 12.2.1 16.1-2.7 3.8-2.8 8.1-11.8 8.1-17 0-5.1 1.1-5.6 11-5.1l6.5.3.3 3.4c.5 5.2-1.7 15.9-4.4 21.7-3.1 6.7-10.9 13.7-19.4 17.8-5.9 2.8-7.4 3.1-16 3.1-8.3-.1-10.5-.5-17.5-3.3-4.4-1.7-14.1-6.6-21.5-10.8-20-11.4-25.3-13.6-33.5-14.1-6-.3-7.6-.1-11 1.9-5.2 3-9.5 10.2-10.4 17l-.6 5.3-8.2.3-8.3.3v-4.8c0-2.7.7-7.5 1.5-10.6 6.6-25.2 27.5-36.7 52-28.6zm363.1 63.4c6.4 3.8 9.7 9.3 10.2 17 .5 8-.9 12.2-5.6 17-4.8 4.9-9.4 6.8-16.3 6.7-15 0-24.9-13.7-20.8-28.7 1.3-4.8 8.9-12.6 13.9-14.2 5.3-1.8 13.4-.8 18.6 2.2z"/>
</svg>
