<svg viewBox="0 0 502 502" xmlns="http://www.w3.org/2000/svg" width="502" height="502" style="background-color:rgb(42, 42, 42)">
  <path fill="#f68a22" d="M500.827 23.688c1.18 11.38-39.574 38.59-50.132 47.45-103.89 86.96-183.6 203.38-224.148 349.705-7.195 26.112-8.11 65.71-17.723 77.06-5.515 6.58-35.27 6.877-44.175-5.897-10.676-15.382-12.15-85.803-14.746-109.662-4.335-39.034-6.193-75.875-14.745-106.7-9.467 21.875-11.738 43.185-17.724 68.168-5.456 22.645-8.7 79.255-32.468 82.99-.826.146-26.835-8.45-32.38-14.85-12.503-14.346-13.034-53.913-17.752-79.995-10.203-57.23-14.98-98.222-23.59-168.94-3.48-28.896-17.46-69.857-5.9-77.06 5.368-3.348 34.592 7.5 38.367 11.827 16.337 19.028 14.833 75.37 17.723 100.77 4.512 39.954 7.048 73.652 11.766 103.735 23.975-29.254 13.654-106.462 53.08-112.598 11.826-1.867 35.24 12.152 41.286 20.717 22.235 31.683 13.712 105.038 26.54 145.257C255.742 224.25 336.632 77.185 462.492 2.94c6.46-3.794 37.394 12.122 38.337 20.748z"/>
</svg>
