<svg xmlns="http://www.w3.org/2000/svg">
  <symbol id="rss" viewBox="0 0 461.432 461.432">
    <title>RSS</title>
    <path d="M125.896 398.928c0 33.683-27.308 60.999-61.022 60.999-33.684 0-61.006-27.316-61.006-60.999 0-33.729 27.322-61.038 61.006-61.038 33.714 0 61.022 27.308 61.022 61.038zM0 229.636c0 8.441 6.606 15.379 15.036 15.809 60.318 3.076 100.885 25.031 138.248 62.582 36.716 36.864 60.071 89.759 64.082 137.769.686 8.202 7.539 14.524 15.77 14.524h56.701c4.344 0 8.498-1.784 11.488-4.935 2.992-3.15 4.555-7.391 4.333-11.729-8.074-158.152-130.669-278.332-289.013-286.23-4.334-.217-8.564 1.355-11.709 4.344C1.792 164.759 0 168.908 0 173.247v56.389z" />
    <path d="M0 73.411c0 8.51 6.713 15.482 15.216 15.819 194.21 7.683 350.315 161.798 358.098 355.879.34 8.491 7.32 15.208 15.818 15.208h56.457c4.297 0 8.408-1.744 11.393-4.834 2.985-3.09 4.585-7.258 4.441-11.552C453.181 199.412 261.024 9.27 16.38 1.121 12.089.978 7.925 2.583 4.838 5.568 1.751 8.551 0 12.661 0 16.954v56.457z" />
  </symbol>
  <symbol id="github" viewBox="0 0 16 16">
    <title>GitHub</title>
    <path d="M8 0C3.58 0 0 3.58 0 8c0 3.54 2.29 6.53 5.47 7.59.4.07.55-.17.55-.38 0-.19-.01-.82-.01-1.49-2.01.37-2.53-.49-2.69-.94-.09-.23-.48-.94-.82-1.13-.28-.15-.68-.52-.01-.53.63-.01 1.08.58 1.23.82.72 1.21 1.87.87 2.33.66.07-.52.28-.87.51-1.07-1.78-.2-3.64-.89-3.64-3.95 0-.87.31-1.59.82-2.15-.08-.2-.36-1.02.08-2.12 0 0 .67-.21 2.2.82.64-.18 1.32-.27 2-.27.68 0 1.36.09 2 .27 1.53-1.04 2.2-.82 2.2-.82.44 1.1.16 1.92.08 2.12.51.56.82 1.27.82 2.15 0 3.07-1.87 3.75-3.65 3.95.29.25.54.73.54 1.48 0 1.07-.01 1.93-.01 2.2 0 .21.15.46.55.38A8.012 8.012 0 0 0 16 8c0-4.42-3.58-8-8-8z" />
  </symbol>
  <symbol id="twitter" viewBox="0 0 310 310">
    <title>Twitter</title>
    <path d="M302.973 57.388c-4.87 2.16-9.877 3.983-14.993 5.463 6.057-6.85 10.675-14.91 13.494-23.73.632-1.977-.023-4.141-1.648-5.434-1.623-1.294-3.878-1.449-5.665-.39-10.865 6.444-22.587 11.075-34.878 13.783-12.381-12.098-29.197-18.983-46.581-18.983-36.695 0-66.549 29.853-66.549 66.547 0 2.89.183 5.764.545 8.598C101.163 99.244 58.83 76.863 29.76 41.204c-1.036-1.271-2.632-1.956-4.266-1.825-1.635.128-3.104 1.05-3.93 2.467-5.896 10.117-9.013 21.688-9.013 33.461 0 16.035 5.725 31.249 15.838 43.137-3.075-1.065-6.059-2.396-8.907-3.977-1.529-.851-3.395-.838-4.914.033-1.52.871-2.473 2.473-2.513 4.224-.007.295-.007.59-.007.889 0 23.935 12.882 45.484 32.577 57.229-1.692-.169-3.383-.414-5.063-.735-1.732-.331-3.513.276-4.681 1.597-1.17 1.32-1.557 3.16-1.018 4.84 7.29 22.76 26.059 39.501 48.749 44.605-18.819 11.787-40.34 17.961-62.932 17.961-4.714 0-9.455-.277-14.095-.826-2.305-.274-4.509 1.087-5.294 3.279-.785 2.193.047 4.638 2.008 5.895 29.023 18.609 62.582 28.445 97.047 28.445 67.754 0 110.139-31.95 133.764-58.753 29.46-33.421 46.356-77.658 46.356-121.367 0-1.826-.028-3.67-.084-5.508 11.623-8.757 21.63-19.355 29.773-31.536 1.237-1.85 1.103-4.295-.33-5.998-1.431-1.704-3.816-2.255-5.852-1.353z" />
  </symbol>
  <symbol id="mastodon" viewBox="0 0 216.4144 232.00976">
    <title>Mastodon</title>
    <path d="M211.80734 139.0875c-3.18125 16.36625-28.4925 34.2775-57.5625 37.74875-15.15875 1.80875-30.08375 3.47125-45.99875 2.74125-26.0275-1.1925-46.565-6.2125-46.565-6.2125 0 2.53375.15625 4.94625.46875 7.2025 3.38375 25.68625 25.47 27.225 46.39125 27.9425 21.11625.7225 39.91875-5.20625 39.91875-5.20625l.8675 19.09s-14.77 7.93125-41.08125 9.39c-14.50875.7975-32.52375-.365-53.50625-5.91875C9.23234 213.82 1.40609 165.31125.20859 116.09125c-.365-14.61375-.14-28.39375-.14-39.91875 0-50.33 32.97625-65.0825 32.97625-65.0825C49.67234 3.45375 78.20359.2425 107.86484 0h.72875c29.66125.2425 58.21125 3.45375 74.8375 11.09 0 0 32.975 14.7525 32.975 65.0825 0 0 .41375 37.13375-4.59875 62.915 M177.50984 80.077v60.94125h-24.14375v-59.15c0-12.46875-5.24625-18.7975-15.74-18.7975-11.6025 0-17.4175 7.5075-17.4175 22.3525v32.37625H96.20734V85.42325c0-14.845-5.81625-22.3525-17.41875-22.3525-10.49375 0-15.74 6.32875-15.74 18.7975v59.15H38.90484V80.077c0-12.455 3.17125-22.3525 9.54125-29.675 6.56875-7.3225 15.17125-11.07625 25.85-11.07625 12.355 0 21.71125 4.74875 27.8975 14.2475l6.01375 10.08125 6.015-10.08125c6.185-9.49875 15.54125-14.2475 27.8975-14.2475 10.6775 0 19.28 3.75375 25.85 11.07625 6.36875 7.3225 9.54 17.22 9.54 29.675" fill-rule="evenodd"/>
  </symbol>
  <symbol id="linkedin" viewBox="0 0 382 382">
    <title>LinkedIn</title>
    <path d="M347.445 0H34.555C15.471 0 0 15.471 0 34.555v312.889C0 366.529 15.471 382 34.555 382h312.889C366.529 382 382 366.529 382 347.444V34.555C382 15.471 366.529 0 347.445 0zM118.207 329.844c0 5.554-4.502 10.056-10.056 10.056H65.345c-5.554 0-10.056-4.502-10.056-10.056V150.403c0-5.554 4.502-10.056 10.056-10.056h42.806c5.554 0 10.056 4.502 10.056 10.056v179.441zM86.748 123.432c-22.459 0-40.666-18.207-40.666-40.666S64.289 42.1 86.748 42.1s40.666 18.207 40.666 40.666-18.206 40.666-40.666 40.666zM341.91 330.654c0 5.106-4.14 9.246-9.246 9.246H286.73c-5.106 0-9.246-4.14-9.246-9.246v-84.168c0-12.556 3.683-55.021-32.813-55.021-28.309 0-34.051 29.066-35.204 42.11v97.079c0 5.106-4.139 9.246-9.246 9.246h-44.426c-5.106 0-9.246-4.14-9.246-9.246V149.593c0-5.106 4.14-9.246 9.246-9.246h44.426c5.106 0 9.246 4.14 9.246 9.246v15.655c10.497-15.753 26.097-27.912 59.312-27.912 73.552 0 73.131 68.716 73.131 106.472v86.846z" />
  </symbol>
  <symbol id="email" viewBox="0 0 75.294 75.294">
    <title>Email</title>
    <path d="M66.097 12.089h-56.9C4.126 12.089 0 16.215 0 21.286v32.722c0 5.071 4.126 9.197 9.197 9.197h56.9c5.071 0 9.197-4.126 9.197-9.197V21.287c.001-5.072-4.125-9.198-9.197-9.198zm-4.494 6L37.647 33.523 13.691 18.089h47.912zm4.494 39.117h-56.9C7.434 57.206 6 55.771 6 54.009V21.457l29.796 19.16c.04.025.083.042.124.065.043.024.087.047.131.069.231.119.469.215.712.278.025.007.05.01.075.016.267.063.537.102.807.102h.006c.27 0 .54-.038.807-.102.025-.006.05-.009.075-.016.243-.063.48-.159.712-.278.044-.022.088-.045.131-.069.041-.023.084-.04.124-.065l29.796-19.16v32.551c-.001 1.763-1.436 3.198-3.199 3.198z" />
  </symbol>
  <symbol id="blog" viewBox="0 0 336.945 336.945">
    <title>Blog</title>
    <path d="M51.478 80.57h170.667c4.143 0 7.5-3.357 7.5-7.5s-3.357-7.5-7.5-7.5H51.478c-4.142 0-7.5 3.357-7.5 7.5s3.358 7.5 7.5 7.5zm0 32.344h189.334c4.143 0 7.5-3.357 7.5-7.5s-3.357-7.5-7.5-7.5H51.478c-4.142 0-7.5 3.357-7.5 7.5s3.358 7.5 7.5 7.5z" />
    <path d="M324.624 121.053c-9.939-9.938-25.9-10.268-36.242-.994V7.5c0-4.143-3.357-7.5-7.5-7.5H12.109c-4.142 0-7.5 3.357-7.5 7.5v321.945c0 4.143 3.358 7.5 7.5 7.5h268.772c4.143 0 7.5-3.357 7.5-7.5V194.59l36.119-36.119c.02-.02.035-.041.054-.06.023-.022.048-.041.07-.063 10.282-10.283 10.282-27.013 0-37.295zM19.609 321.945V15h253.772v120l-28.69 28.691c-1.133-.688-2.457-1.09-3.879-1.09H51.478c-4.142 0-7.5 3.357-7.5 7.5s3.358 7.5 7.5 7.5H230.78l-17.344 17.344H51.478c-4.142 0-7.5 3.357-7.5 7.5s3.358 7.5 7.5 7.5h146.958l-17.344 17.344H51.478c-4.142 0-7.5 3.357-7.5 7.5s3.358 7.5 7.5 7.5h114.615l-13.797 13.797c-.203.203-.388.416-.563.635-.045.058-.086.119-.13.178-.129.172-.252.347-.364.527-.042.067-.082.137-.122.206-.109.187-.208.378-.3.571-.019.041-.043.077-.062.118l-1.226 2.735c-1.234-.893-2.746-1.424-4.384-1.424H51.478c-4.142 0-7.5 3.357-7.5 7.5s3.358 7.5 7.5 7.5h91.965l-9.657 21.539c-.173.387-.305.783-.409 1.184-1.959 4.168-1.232 9.297 2.206 12.734 2.123 2.124 4.945 3.293 7.949 3.293 1.705 0 3.346-.389 4.84-1.104.382-.103.761-.226 1.129-.391l37.853-16.968c.039-.018.074-.041.112-.06.198-.092.393-.193.583-.305.066-.038.132-.076.196-.116.187-.116.368-.242.546-.376.052-.04.107-.076.159-.117.221-.176.436-.362.64-.566l83.791-83.791v112.357H19.609zm151.678-36.26-19.569 8.772c-.082-.087-.154-.179-.238-.264-.084-.084-.175-.156-.261-.237l8.773-19.567 11.295 11.296zm13-8.214-16.081-16.081L292.51 137.086l16.081 16.081-124.304 124.304zm133.01-136.812-12.278-12.278c3.223-.271 6.538.818 8.999 3.279 2.461 2.46 3.549 5.777 3.279 8.999z" />
    <path d="M51.478 145.258h160c4.143 0 7.5-3.357 7.5-7.5s-3.357-7.5-7.5-7.5h-160c-4.142 0-7.5 3.357-7.5 7.5s3.358 7.5 7.5 7.5z" />
  </symbol>
  <symbol id="pdf" viewBox="0 0 58 58">
    <title>PDF</title>
    <path d="M39.57 25.259c.149-.209.207-.343.23-.415-.123-.065-.286-.197-1.175-.197-.505 0-1.139.022-1.811.108.815.627 1.014.944 1.547.944.233.001.901-.009 1.209-.44zm-19.034 7.375c.149-.047 1.019-.444 2.64-3.436-2.138 1.201-3.008 2.188-3.07 2.744-.011.092-.038.334.43.692z" />
    <path d="M51.5 39V13.978c0-.766-.092-1.333-.55-1.792L39.313.55C38.964.201 38.48 0 37.985 0H8.963C7.777 0 6.5.916 6.5 2.926V39h45zm-14-35.609c0-.458.553-.687.877-.363l10.095 10.095c.324.324.095.877-.363.877H37.5V3.391zM18.432 31.755c.182-1.628 2.195-3.332 5.985-5.068 1.504-3.296 2.935-7.357 3.788-10.75-.998-2.172-1.968-4.99-1.261-6.643.248-.579.557-1.023 1.134-1.215.228-.076.804-.172 1.016-.172.504 0 .947.649 1.261 1.049.295.376.964 1.173-.373 6.802 1.348 2.784 3.258 5.62 5.088 7.562 1.311-.237 2.439-.358 3.358-.358 1.566 0 2.515.365 2.902 1.117.32.622.189 1.349-.39 2.16-.557.779-1.325 1.191-2.22 1.191-1.216 0-2.632-.768-4.211-2.285-2.837.593-6.151 1.651-8.828 2.822-.836 1.774-1.637 3.203-2.383 4.251-1.023 1.438-1.907 2.107-2.782 2.107-.348 0-.682-.113-.967-.326-1.043-.783-1.183-1.652-1.117-2.244zm2.79 14.103c-.142-.196-.34-.36-.595-.492-.255-.132-.593-.198-1.012-.198h-1.23v3.992h1.504c.2 0 .398-.034.595-.103.196-.068.376-.18.54-.335.164-.155.296-.371.396-.649.1-.278.15-.622.15-1.032 0-.164-.023-.354-.068-.567-.046-.214-.139-.419-.28-.616z" />
    <path d="M29.343 18.174c-.716 2.474-1.659 5.145-2.674 7.564 2.09-.811 4.362-1.519 6.496-2.02-1.35-1.568-2.699-3.526-3.822-5.544zM6.5 41v15c0 1.009 1.22 2 2.463 2h40.074c1.243 0 2.463-.991 2.463-2V41h-45zm16.396 7.429c-.173.415-.415.764-.725 1.046-.31.282-.684.501-1.121.656s-.921.232-1.449.232h-1.217V54h-1.641V43.924h2.898c.428 0 .852.068 1.271.205.419.137.795.342 1.128.615.333.273.602.604.807.991s.308.822.308 1.306c.001.511-.086.973-.259 1.388zm10.056 2.379c-.178.588-.403 1.08-.677 1.477s-.581.709-.923.937-.672.398-.991.513c-.319.114-.611.187-.875.219-.264.03-.46.046-.588.046h-3.814V43.924h3.035c.848 0 1.593.135 2.235.403s1.176.627 1.6 1.073.74.955.95 1.524c.209.569.314 1.155.314 1.757.001.83-.088 1.539-.266 2.127zm8.948-5.64h-4.635v3.172h4.211v1.121h-4.211V54h-1.668V43.924H41.9v1.244z" />
    <path d="M30.765 46.282c-.287-.333-.677-.602-1.169-.807s-1.13-.308-1.914-.308h-.957v7.629h1.627c1.112 0 1.914-.355 2.406-1.066s.738-1.741.738-3.09c0-.419-.05-.834-.15-1.244-.101-.41-.294-.781-.581-1.114zm-2.029-36.57c-.098.033-1.33 1.757.096 3.216.949-2.115-.053-3.23-.096-3.216z" />
  </symbol>
  <symbol id="share" viewBox="0 0 483 483">
    <title>Share</title>
    <path d="M395.72 0c-48.204 0-87.281 39.078-87.281 87.281 0 2.036.164 4.03.309 6.029l-161.233 75.674c-15.668-14.971-36.852-24.215-60.231-24.215C39.08 144.77.002 183.848.002 232.051c0 48.204 39.078 87.281 87.281 87.281 15.206 0 29.501-3.907 41.948-10.741l69.789 58.806c-3.056 8.896-4.789 18.396-4.789 28.322 0 48.204 39.078 87.281 87.281 87.281 48.205 0 87.281-39.078 87.281-87.281s-39.077-87.281-87.281-87.281c-15.205 0-29.5 3.908-41.949 10.74l-69.788-58.805c3.057-8.891 4.789-18.396 4.789-28.322 0-2.035-.164-4.024-.308-6.029l161.232-75.674c15.668 14.971 36.852 24.215 60.23 24.215 48.203 0 87.281-39.078 87.281-87.281S443.923 0 395.72 0z"/>
  </symbol>
  <symbol id="hacker-news" viewBox="0 0 512 512">
    <title>Hacker News</title>
    <path d="M0 0v512h512V0H0zm46.5 46.5h418.9v418.9H46.5V46.5zm104.8 93.1 81.5 139.6v116.4h46.5V279.3l81.5-139.6h-46.5L256 239.3l-58.2-99.6h-46.5z"/>
  </symbol>
  <symbol id="references" viewBox="0 -2 31.691 31.691">
    <title>References</title>
    <path d="M16.868 6.977h2.517v.695h-2.517v-.695zm2.511 1.147h-2.516v.697h2.516v-.697zM14.09 6.977h-2.519v.695h2.519v-.695zm17.601 13.628v1.672h-3.752v4.992h-2.146v-4.992H5.695v5.16H3.547v-5.16H0v-1.672h4.606l-2.522-.58L5.697 4.254l4.653 1.064v-.556h4.963v15.844h.33V4.604h4.962v16.001h.651V4.604h4.966v16.001h5.469zm-25.28-.283L9.723 5.873l-3.515-.805-3.311 14.45 3.514.804zM10.35 6.18 7.044 20.607h3.306V6.18zm4.284 12.487h-3.605v1.599h3.605v-1.599zm-3.007-1.821v.648h2.492v-.648h-2.492zm2.492-.434v-.647h-2.492v.647h2.492zm.515-10.969h-3.605v9.148h3.605V5.443zm5.292 14.664V5.284H16.32v14.823h3.606zm5.617-14.823h-3.605v14.823h3.605V5.284zm-.883 1.369h-.695v8.229h.695V6.653zm-1.148-.017h-.697v8.228h.697V6.636zm-15.614.587-1.884 8.225.628.144 1.884-8.225-.628-.144zm-1.257-.246-1.885 8.224.628.144 1.885-8.224-.628-.144zm12.738 8.786h-2.516v.694h2.516v-.694zm-2.511 1.93h2.517v-.694h-2.517v.694z"/>
  </symbol>
  <symbol id="stats" viewBox="20 20 80 80">
    <title>Simple Analytics</title>
    <rect x="30" y="53" width="10" height="53"></rect>
    <rect x="54" y="35" width="10" height="65"></rect>
    <rect x="78" y="18" width="10" height="85"></rect>
  </symbol>
</svg>
